<svg fill="#fff" xmlns="http://www.w3.org/2000/svg" viewBox="0 0 50 50" width="50" height="50">
	<!-- <style>
		tspan { white-space:pre }
		.shp0 { fill: #c9cbcf }
		.shp1 { fill: #555e6b }
	</style> -->
	<g id="Layer">
		<path id="Layer" class="shp0" d="M41.44,30.71h-4.55c0.03,0.85 0.08,1.69 0.15,2.54h4.27c0.07,-0.85 0.12,-1.7 0.14,-2.54zM25.7,16.79l-0.43,-6.46c0,-0.07 -0.03,-0.13 -0.08,-0.18c-0.11,-0.11 -0.28,-0.11 -0.39,0c-0.05,0.05 -0.08,0.11 -0.08,0.18l-0.43,6.46zM13.11,30.71h-4.55c0.03,0.85 0.08,1.69 0.15,2.54h4.28c0.07,-0.85 0.12,-1.7 0.13,-2.54zM28.12,26.04h-6.24v14.07c0,0.43 0.35,0.78 0.78,0.78h4.68c0.43,0 0.78,-0.35 0.78,-0.78z" />
	</g>
	<path id="Layer" class="shp1" d="M43.02,24.59v23.82c0,0.88 -0.72,1.6 -1.6,1.6h-4.51c-0.88,0 -1.6,-0.72 -1.6,-1.6v-15.33h-5.63v7.05c0,1.29 -1.05,2.34 -2.34,2.34h-4.68c-1.29,0 -2.34,-1.05 -2.34,-2.34v-7.05h-5.63v15.33c0,0.88 -0.72,1.6 -1.6,1.6h-4.51c-0.88,0 -1.6,-0.72 -1.6,-1.6v-23.81c0,-2.13 1.73,-3.86 3.86,-3.86c2.13,0 3.86,1.73 3.86,3.86v2.2h5.63v-0.74c0,-0.78 0.59,-1.44 1.34,-1.54v-6.2c-0.73,-0.13 -1.41,-0.5 -1.9,-1.07c-0.62,-0.71 -0.9,-1.66 -0.76,-2.59l1.56,-10.85c0.11,-0.78 0.79,-1.38 1.58,-1.38h0.56v-1.64c0,-0.43 0.35,-0.78 0.78,-0.78c0.43,0 0.78,0.35 0.78,0.78v1.64h1.51v-1.64c0,-0.43 0.35,-0.78 0.78,-0.78c0.43,0 0.78,0.35 0.78,0.78v1.64h0.56c0.79,0 1.47,0.6 1.58,1.38l1.54,10.84c0.14,0.94 -0.15,1.87 -0.76,2.59c-0.49,0.58 -1.17,0.95 -1.9,1.07v6.2c0.76,0.11 1.34,0.76 1.34,1.54v0.74h5.63v-2.2c0,-2.13 1.73,-3.86 3.86,-3.86c2.13,0 3.86,1.73 3.86,3.86zM41.44,30.71h-4.55c0.03,0.85 0.08,1.69 0.15,2.54h4.27c0.07,-0.85 0.12,-1.7 0.14,-2.54zM37.19,34.81c0.28,2.38 0.75,4.74 1.42,7.05c0.07,0.24 0.3,0.42 0.56,0.42c0.25,0 0.49,-0.18 0.56,-0.42c0.65,-2.31 1.13,-4.67 1.42,-7.05zM26.79,18.35h-3.56v6.13h3.56zM22.2,16.79h0.54l0.44,-6.57c0.03,-0.44 0.22,-0.86 0.54,-1.17c0.35,-0.34 0.81,-0.54 1.3,-0.54c0.49,0 0.95,0.19 1.3,0.54c0.32,0.31 0.51,0.73 0.54,1.17l0.44,6.57h0.54c0.49,0 0.95,-0.21 1.27,-0.58c0.31,-0.37 0.46,-0.86 0.39,-1.34l-1.55,-10.85c0,-0.02 -0.02,-0.03 -0.04,-0.03h-5.76c-0.02,0 -0.04,0.01 -0.04,0.03l-1.55,10.85c-0.07,0.48 0.07,0.97 0.39,1.34c0.32,0.36 0.78,0.58 1.27,0.58zM25.7,16.79l-0.43,-6.46c0,-0.07 -0.03,-0.13 -0.08,-0.18c-0.07,-0.07 -0.16,-0.08 -0.2,-0.08c-0.05,0 -0.13,0.01 -0.2,0.08c-0.05,0.05 -0.08,0.11 -0.08,0.18l-0.43,6.46zM13.11,30.71h-4.55c0.03,0.85 0.08,1.69 0.15,2.54h4.28c0.07,-0.85 0.12,-1.7 0.13,-2.54zM8.87,34.81c0.28,2.38 0.75,4.74 1.42,7.05c0.07,0.24 0.3,0.42 0.56,0.42c0.25,0 0.49,-0.18 0.56,-0.42c0.65,-2.31 1.13,-4.67 1.42,-7.05zM8.54,29.14h4.59v-4.55c0,-1.26 -1.03,-2.29 -2.29,-2.29c-1.26,0 -2.29,1.03 -2.29,2.29zM13.13,48.4v-6.97c-0.07,0.29 -0.16,0.59 -0.23,0.87c-0.26,0.92 -1.11,1.55 -2.06,1.55c-0.96,0 -1.8,-0.63 -2.06,-1.55c-0.08,-0.29 -0.16,-0.58 -0.23,-0.87v6.97c0,0.02 0.02,0.04 0.04,0.04h4.51c0.02,0 0.04,-0.02 0.04,-0.04zM14.7,31.49h5.63v-3.15h-5.62zM28.12,26.04h-6.24v14.07c0,0.43 0.35,0.78 0.78,0.78h4.68c0.43,0 0.78,-0.35 0.78,-0.78zM29.68,31.51h5.63v-3.16h-5.63zM41.46,48.4v-6.97c-0.07,0.29 -0.16,0.59 -0.23,0.87c-0.26,0.92 -1.11,1.55 -2.06,1.55c-0.96,0 -1.8,-0.63 -2.06,-1.55c-0.08,-0.29 -0.16,-0.58 -0.23,-0.87v6.97c0,0.02 0.02,0.04 0.04,0.04h4.51c0.02,0 0.04,-0.02 0.04,-0.04zM41.46,24.59c0,-1.26 -1.04,-2.29 -2.29,-2.29c-1.26,0 -2.29,1.03 -2.29,2.29v4.55h4.59z" />
</svg>
