<svg fill="#fff" xmlns="http://www.w3.org/2000/svg" viewBox="0 0 50 50" width="50" height="50">
	<!-- <style>
		tspan { white-space:pre }
		.shp0 { fill: #c9cbcf }
		.shp1 { fill: #555e6b }
	</style> -->
	<g id="Layer">
		<path id="Layer" class="shp0" d="M40.79,12.21h2.82l-1.34,-3.09c-0.01,-0.02 -0.04,-0.04 -0.08,-0.04c-0.05,0 -0.07,0.02 -0.08,0.04zM36.01,17.17c-2.38,-1.97 -5.22,-3.31 -8.3,-3.92l0.29,4.56c1.71,0.5 3.32,1.33 4.72,2.41zM6.77,24.04l4.24,1.69c1.56,-3.81 4.82,-6.72 8.91,-7.91l0.29,-4.57c-5.13,1.02 -9.59,4.12 -12.23,8.42l-1.21,2.37c0.01,0 0.01,0 0,0zM8.49,32.6v-3.88l-2.46,-0.16c-0.02,0 -0.03,0.01 -0.04,0.01v4.17c0.01,0 0.02,0.01 0.04,0.01zM41.14,37.29l-4.24,-1.68c-2.09,5.1 -7.18,8.47 -12.93,8.48v0h-0.01h-0.01v0c-5.75,-0.01 -10.84,-3.39 -12.93,-8.49l-4.25,1.69c-0.01,0 -0.01,0 -0.01,0c1.37,3.25 3.68,6.03 6.7,8.02c3.1,2.04 6.72,3.13 10.49,3.13v0c3.77,0 7.39,-1.08 10.49,-3.12c3.02,-1.99 5.34,-4.77 6.7,-8.02zM39.43,28.72v3.88l2.46,0.16c0.02,0 0.03,-0.01 0.04,-0.01v-4.17c-0.01,0 -0.02,-0.01 -0.04,-0.01zM40.29,22.28l-8.08,5.3l8.93,-3.54c0,0.01 0,0.01 0,0c-0.25,-0.6 -0.54,-1.18 -0.85,-1.76z" />
	</g>
	<path id="Layer" class="shp1" d="M45.58,12.84v5.14c0,0.53 -0.26,1.02 -0.7,1.31l-3.27,2.15c0.36,0.65 0.69,1.33 0.99,2.02c0.17,0.38 0.17,0.81 0,1.19c-0.16,0.39 -0.47,0.69 -0.87,0.85l-4.57,1.82l4.65,-0.3c0.44,-0.03 0.88,0.13 1.2,0.43c0.31,0.29 0.49,0.71 0.49,1.13v4.19c0,0.43 -0.18,0.84 -0.49,1.13c-0.29,0.27 -0.69,0.43 -1.1,0.43c-0.04,0 -0.07,0 -0.11,0l-4.65,-0.3l4.57,1.82c0.39,0.16 0.7,0.46 0.87,0.85c0.17,0.38 0.17,0.8 0,1.19c-1.47,3.54 -3.99,6.56 -7.28,8.73c-3.34,2.22 -7.26,3.39 -11.33,3.39c-0.01,0 -0.01,0 -0.02,0c-0.01,0 -0.01,0 -0.02,0c-4.06,-0.01 -7.99,-1.18 -11.33,-3.39c-3.28,-2.17 -5.79,-5.19 -7.28,-8.73c-0.17,-0.38 -0.17,-0.81 0,-1.19c0.16,-0.39 0.47,-0.69 0.87,-0.85l4.58,-1.81l-4.65,0.29c-0.04,0 -0.07,0 -0.11,0c-0.41,0 -0.81,-0.15 -1.1,-0.43c-0.31,-0.29 -0.49,-0.71 -0.49,-1.13v-4.19c0,-0.43 0.18,-0.84 0.49,-1.13c0.31,-0.3 0.75,-0.46 1.2,-0.43l4.64,0.29l-4.57,-1.82c-0.39,-0.16 -0.7,-0.46 -0.87,-0.85c-0.16,-0.38 -0.17,-0.8 0,-1.19c0.37,-0.88 0.81,-1.73 1.31,-2.55l10.1,-19.7l0.01,-0.02c0.43,-0.73 1.23,-1.18 2.09,-1.18h2.46c0.88,0 1.59,0.7 1.59,1.56v5.74h2.16v-5.74c0,-0.86 0.71,-1.56 1.59,-1.56h2.46c0.86,0 1.66,0.45 2.09,1.18l0.02,0.04l7.09,13.82l0.53,-0.49v-1.73l1.88,-4.33c0.25,-0.6 0.85,-0.98 1.5,-0.98c0.65,0 1.25,0.38 1.5,0.98zM40.79,12.21h2.82l-1.34,-3.09c-0.01,-0.02 -0.04,-0.04 -0.08,-0.04c-0.05,0 -0.07,0.02 -0.08,0.04zM28.73,29.42l0.05,0.73c0.02,0.14 0.03,0.28 0.03,0.43c0,0.02 0,0.06 0,0.08c0,0.43 -0.06,0.84 -0.18,1.24l9.24,0.6v-3.67zM19.11,30.65c0,-0.02 0,-0.06 0,-0.08c0,-0.15 0.01,-0.28 0.03,-0.43l0.05,-0.73l-9.14,-0.59v3.67l9.24,-0.6c-0.11,-0.39 -0.18,-0.81 -0.18,-1.25zM22.06,8.91l-1.15,18.12c0.83,-0.65 1.89,-1.04 3.05,-1.04c1.16,0 2.22,0.39 3.06,1.05l-1.15,-18.12v-0.04c0,0 -0.01,-0.01 -0.03,-0.01h-3.75c-0.02,0 -0.03,0.01 -0.03,0.01zM20.68,30.66c0,1.73 1.47,3.13 3.28,3.13c1.81,0 3.28,-1.41 3.28,-3.12l-0.02,-0.37c-0.2,-1.54 -1.58,-2.75 -3.26,-2.75c-1.68,0 -3.07,1.2 -3.26,2.75zM28.4,24.24l3.15,-2.93c-1.04,-0.77 -2.22,-1.4 -3.46,-1.82zM36.01,17.17c-2.38,-1.97 -5.22,-3.31 -8.3,-3.92l0.29,4.56c1.71,0.5 3.32,1.33 4.72,2.41zM26.59,1.57v5.92c0.16,0.08 0.29,0.19 0.41,0.31c0.28,0.3 0.43,0.7 0.42,1.1l0.18,2.73c3.48,0.62 6.7,2.1 9.39,4.32l-7.17,-14c-0.16,-0.24 -0.43,-0.39 -0.73,-0.39h-2.46c-0.02,0 -0.03,0.01 -0.04,0.01zM10.9,15.97c0.15,-0.12 0.29,-0.23 0.44,-0.35c2.61,-2.02 5.7,-3.39 8.97,-3.96l0.18,-2.73c-0.01,-0.41 0.14,-0.8 0.42,-1.1c0.12,-0.13 0.26,-0.23 0.41,-0.31v-5.93c0,0 -0.01,-0.01 -0.03,-0.01h-2.46c-0.3,0 -0.59,0.15 -0.73,0.39zM6.77,24.04l4.24,1.69c1.56,-3.81 4.82,-6.72 8.91,-7.91l0.29,-4.57c-5.13,1.02 -9.59,4.12 -12.23,8.42zM15.8,27.64l3.49,0.22l0.53,-8.36c-3.36,1.14 -6.04,3.61 -7.34,6.81zM8.49,32.6v-3.88l-2.46,-0.16c-0.02,0 -0.03,0.01 -0.04,0.01v4.17c0.01,0 0.02,0.01 0.04,0.01zM41.14,37.29l-4.24,-1.68c-2.09,5.1 -7.18,8.47 -12.93,8.48h-0.02c-5.75,-0.01 -10.84,-3.39 -12.93,-8.49l-4.25,1.69c-0.01,0 -0.01,0 -0.01,0c1.37,3.25 3.68,6.03 6.7,8.02c3.1,2.04 6.72,3.13 10.49,3.13c3.77,0 7.39,-1.08 10.49,-3.12c3.02,-1.99 5.34,-4.77 6.7,-8.02zM32.09,33.69l-4.24,-0.27c-0.88,1.16 -2.3,1.92 -3.91,1.92c-1.6,0 -3.03,-0.76 -3.91,-1.92l-4.24,0.27l-3.33,1.33c1.86,4.51 6.38,7.5 11.49,7.5c5.11,0 9.63,-2.98 11.48,-7.49zM39.43,28.72v3.88l2.46,0.16c0.02,0 0.03,-0.01 0.04,-0.01v-4.17c-0.01,0 -0.02,-0.01 -0.04,-0.01zM44.02,17.97v-4.2h-3.64v1.46l-11.85,11.02l0.1,1.6l0.37,-0.02zM40.29,22.28l-8.08,5.3l8.93,-3.54c0,0.01 0,0.01 0,0c-0.25,-0.6 -0.54,-1.18 -0.85,-1.76z" />
</svg>
