<svg fill="#fff" xmlns="http://www.w3.org/2000/svg" viewBox="0 0 50 50" width="50" height="50">
	<!-- <style>
		tspan { white-space:pre }
		.shp0 { fill: #555e6b }
	</style> -->
	<g id="Layer">
		<path id="Layer" class="shp0" d="M49.94,34.49v8.98c0,1.18 -0.97,2.15 -2.15,2.15c-0.9,0 -1.68,-0.57 -1.99,-1.36l-4.4,1.03c-2.9,0.67 -5.88,1.04 -8.87,1.09v2.82c0,0.43 -0.35,0.78 -0.78,0.78c-0.43,0 -0.78,-0.35 -0.78,-0.78v-2.41l-0.51,0.21c-1.7,0.72 -3.51,1.09 -5.36,1.12c-0.03,0 -0.07,0 -0.1,0c-0.03,0 -0.07,0 -0.1,0c-1.86,-0.02 -3.65,-0.4 -5.36,-1.12l-0.51,-0.21v2.41c0,0.43 -0.35,0.78 -0.78,0.78c-0.43,0 -0.78,-0.35 -0.78,-0.78v-2.8c-2.9,-0.04 -5.78,-0.36 -8.56,-0.97l-4.77,-1.04c-0.35,0.72 -1.09,1.22 -1.94,1.22c-1.18,0 -2.15,-0.97 -2.15,-2.15v-8.98c0,-0.91 0.57,-1.69 1.37,-2v-13.98h-0.63c-0.43,0 -0.78,-0.35 -0.78,-0.78c0,-0.43 0.35,-0.78 0.78,-0.78h0.63v-1.88c0,-0.43 0.35,-0.78 0.78,-0.78c0.43,0 0.78,0.35 0.78,0.78v1.88h0.63c0.43,0 0.78,0.35 0.78,0.78c0,0.43 -0.35,0.78 -0.78,0.78h-0.63v13.98c0.8,0.31 1.37,1.09 1.37,2v0.77c0.1,0 2.44,0 2.54,0v-13.85h-0.41c-0.43,0 -0.78,-0.35 -0.78,-0.78c0,-0.43 0.35,-0.78 0.78,-0.78h0.41v-1.87c0,-0.43 0.35,-0.78 0.78,-0.78c0.43,0 0.78,0.35 0.78,0.78v1.87h0.42c0.43,0 0.78,0.35 0.78,0.78c0,0.43 -0.35,0.78 -0.78,0.78h-0.42v13.8c2.39,-0.15 4.77,-0.58 7.07,-1.28c0.43,-0.56 1.1,-0.92 1.86,-0.92h1.65l3.5,-30.69c0.14,-1.25 1.15,-2.21 2.38,-2.29v-0.01c0.03,0 0.07,0 0.1,0c0.03,0 0.07,0 0.1,0v0.01c1.23,0.09 2.25,1.04 2.38,2.29l3.5,30.68h1.65c0.75,0 1.43,0.36 1.86,0.92c2.3,0.7 4.68,1.13 7.07,1.28v-13.79h-0.42c-0.43,0 -0.78,-0.35 -0.78,-0.78c0,-0.43 0.35,-0.78 0.78,-0.78h0.42v-1.87c0,-0.43 0.35,-0.78 0.78,-0.78c0.43,0 0.78,0.35 0.78,0.78v1.87h0.41c0.43,0 0.78,0.35 0.78,0.78c0,0.43 -0.35,0.78 -0.78,0.78h-0.41v13.85c0.1,0 2.44,0 2.54,0v-0.77c0,-0.91 0.57,-1.69 1.37,-2v-13.98h-0.63c-0.43,0 -0.78,-0.35 -0.78,-0.78c0,-0.43 0.35,-0.78 0.78,-0.78h0.63v-1.88c0,-0.43 0.35,-0.78 0.78,-0.78c0.43,0 0.78,0.35 0.78,0.78v1.88h0.63c0.43,0 0.78,0.35 0.78,0.78c0,0.43 -0.35,0.78 -0.78,0.78h-0.63v13.98c0.8,0.31 1.37,1.09 1.36,2zM32.63,34.58h-1.76c-0.43,0 -0.78,0.35 -0.78,0.78v4.85c0,0.92 0.74,1.66 1.66,1.66c0.92,0 1.66,-0.74 1.66,-1.66v-4.85c0,-0.43 -0.35,-0.78 -0.78,-0.78zM24.08,2.5l-0.49,4.27c0.4,-0.14 0.88,-0.24 1.42,-0.24c0.53,0 1.01,0.12 1.42,0.26l-0.49,-4.29c-0.06,-0.5 -0.46,-0.87 -0.94,-0.92c-0.48,0.05 -0.88,0.43 -0.92,0.92zM16.59,40.21c0,0.92 0.74,1.66 1.66,1.66c0.92,0 1.66,-0.74 1.66,-1.66v-4.85c0,-0.43 -0.35,-0.78 -0.78,-0.78h-1.76c-0.43,0 -0.78,0.35 -0.78,0.78zM2.78,34.49c0,-0.32 -0.26,-0.59 -0.59,-0.59c-0.32,0 -0.59,0.26 -0.59,0.59v8.98c0,0.32 0.26,0.59 0.59,0.59c0.32,0 0.59,-0.26 0.59,-0.59zM9.24,43.9c2.68,0.59 5.45,0.9 8.23,0.93v-1.49c-1.4,-0.35 -2.44,-1.62 -2.44,-3.12v-4.51c-2.34,0.63 -4.75,1.01 -7.17,1.1c-0.06,0.02 -0.13,0.03 -0.2,0.03c-0.05,0 -0.1,-0.01 -0.15,-0.02c-0.31,0.01 -0.62,0.02 -0.94,0.02h-2.24v6.02zM30.97,45.09v-1.75c-1.4,-0.35 -2.44,-1.62 -2.44,-3.12v-4.85c0,-0.77 0.37,-1.45 0.94,-1.87l-2.83,-24.85c-0.22,-0.16 -0.87,-0.55 -1.63,-0.55c-0.84,0 -1.46,0.4 -1.63,0.54l-2.83,24.86c0.57,0.43 0.94,1.11 0.94,1.88v4.85c0,1.5 -1.04,2.77 -2.44,3.13v1.75l1.11,0.47c1.54,0.65 3.17,1 4.85,1.01c1.68,-0.02 3.31,-0.35 4.85,-1.01zM45.65,42.71v-5.87h-2.24c-0.31,0 -0.62,-0.01 -0.94,-0.02c-0.05,0.01 -0.1,0.02 -0.15,0.02c-0.07,0 -0.14,-0.01 -0.2,-0.03c-2.42,-0.1 -4.82,-0.47 -7.17,-1.1v4.51c0,1.5 -1.04,2.77 -2.44,3.13v1.48c2.87,-0.05 5.73,-0.41 8.52,-1.05zM48.39,34.49c0,-0.32 -0.26,-0.59 -0.59,-0.59c-0.32,0 -0.59,0.26 -0.59,0.59v8.98c0,0.32 0.26,0.59 0.59,0.59c0.32,0 0.59,-0.26 0.59,-0.59z" />
		<path id="Layer" class="shp0" d="M27.7,25.8c0.15,1.09 0.02,2.22 -0.38,3.26c-0.29,0.76 -1.04,1.27 -1.86,1.27h-0.9c-0.82,0 -1.56,-0.51 -1.86,-1.27c-0.4,-1.04 -0.54,-2.18 -0.38,-3.26l0.71,-5.09c0.13,-0.98 0.97,-1.71 1.96,-1.71c0.99,0 1.84,0.74 1.96,1.72zM26.14,26.02l-0.71,-5.09c-0.03,-0.21 -0.21,-0.36 -0.42,-0.36c-0.21,0 -0.39,0.15 -0.42,0.35l-0.71,5.1c-0.12,0.82 -0.02,1.68 0.28,2.48c0.06,0.17 0.22,0.27 0.39,0.27h0.9c0.17,0 0.33,-0.12 0.39,-0.27c0.31,-0.79 0.41,-1.65 0.3,-2.48z" />
		<path id="Layer" class="shp0" d="M27.34,34.6c0,1.29 -1.05,2.34 -2.34,2.34c-1.29,0 -2.34,-1.05 -2.34,-2.34c0,-1.29 1.05,-2.34 2.34,-2.34c1.29,0 2.34,1.05 2.34,2.34zM25.78,34.6c0,-0.43 -0.35,-0.78 -0.78,-0.78c-0.43,0 -0.78,0.35 -0.78,0.78c0,0.43 0.35,0.78 0.78,0.78c0.43,0 0.78,-0.35 0.78,-0.78z" />
	</g>
</svg>
