<svg fill="#fff" xmlns="http://www.w3.org/2000/svg" viewBox="0 0 50 50" width="50" height="50">
	<!-- <style>
		tspan { white-space:pre }
		.shp0 { fill: #c9cbcf }
		.shp1 { fill: #555e6b }
	</style> -->
	<g id="Layer">
		<path id="Layer" class="shp0" d="M27.58,26.06h-2.48v0h-2.48c-0.02,1.5 -0.01,2.97 0.01,3.84h2.47v0h2.47c0.02,-0.87 0.04,-2.33 0.01,-3.84zM27.55,24.5c-0.03,-0.95 -0.09,-1.83 -0.19,-2.49c-0.96,-4.35 -1.97,-5.03 -2.17,-5.12c-0.06,-0.03 -0.14,-0.03 -0.19,0c-0.2,0.1 -1.21,0.77 -2.17,5.12c-0.09,0.66 -0.15,1.54 -0.19,2.49h2.44v0zM22.69,31.46l0.43,7.94h1.98h1.98l0.43,-7.94h-2.41v0zM15.63,44.64v-2.48v-10.09h-2.16v12.57v0zM18.76,43.72h-1.56v0.92h1.56zM33,44.64v-0.92h-1.56v0.92zM36.74,32.07h-2.17v10.09v2.48h2.16v-0.02v0z" />
	</g>
	<path id="Layer" class="shp1" d="M43.17,13.22v20.02c0,0.43 -0.35,0.78 -0.78,0.78c-0.43,0 -0.78,-0.35 -0.78,-0.78v-4.32h-1.37c-0.01,0.63 -0.03,1.21 -0.06,1.67c-0.05,0.83 -0.73,1.47 -1.56,1.47h-0.32v12.55c0,0.42 -0.16,0.81 -0.45,1.11c-0.29,0.3 -0.69,0.47 -1.11,0.47h-2.17v2.24h2.22c0.43,0 0.78,0.35 0.78,0.78c0,0.43 -0.35,0.78 -0.78,0.78h-6.03c-0.43,0 -0.78,-0.35 -0.78,-0.78c0,-0.43 0.35,-0.78 0.78,-0.78h2.24v-2.24h-1.56c-0.86,0 -1.56,-0.7 -1.56,-1.56v-0.92h-9.56v0.92c0,0.86 -0.7,1.56 -1.56,1.56h-1.56v2.24h2.23c0.43,0 0.78,0.35 0.78,0.78c0,0.43 -0.35,0.78 -0.78,0.78h-6.03c-0.43,0 -0.78,-0.35 -0.78,-0.78c0,-0.43 0.35,-0.78 0.78,-0.78h2.24v-2.24h-2.17c-0.42,0 -0.82,-0.17 -1.11,-0.47c-0.29,-0.29 -0.46,-0.69 -0.45,-1.11v-12.55h-0.32c-0.83,0 -1.51,-0.64 -1.56,-1.47c-0.03,-0.46 -0.05,-1.04 -0.06,-1.67h-1.37v4.32c0,0.43 -0.35,0.78 -0.78,0.78c-0.43,0 -0.78,-0.35 -0.78,-0.78v-20.02c0,-0.43 0.35,-0.78 0.78,-0.78c0.43,0 0.78,0.35 0.78,0.78v14.13h1.43c0.03,-0.81 0.11,-1.62 0.26,-2.26c0.49,-2.04 2.07,-5.02 2.24,-5.33c0.16,-0.34 2.21,-4.76 4.25,-9.34c1.1,-2.48 1.8,-7.56 1.98,-9.06c0.1,-0.78 0.76,-1.37 1.55,-1.37h2.71c0.86,0 1.56,0.7 1.56,1.56v3.57h1.09v-3.56c0,-0.86 0.7,-1.56 1.56,-1.56h2.71c0.79,0 1.46,0.59 1.55,1.37c0.19,1.49 0.88,6.58 1.98,9.06c2.04,4.58 4.09,8.99 4.25,9.34c0.17,0.3 1.75,3.29 2.24,5.33c0.15,0.63 0.22,1.44 0.26,2.26h1.39v-14.14c0,-0.43 0.35,-0.78 0.78,-0.78c0.43,0 0.78,0.35 0.78,0.78zM22.96,5.24v-3.68h-2.55l0.3,16.8c0.04,1.56 0.19,3.12 0.44,4.65c0.03,-0.45 0.08,-0.88 0.13,-1.24l0.01,-0.06c0.78,-3.54 1.8,-5.63 3.03,-6.22c0.48,-0.22 1.05,-0.22 1.53,0c1.23,0.59 2.26,2.68 3.03,6.22l0.01,0.06c0.05,0.36 0.09,0.78 0.13,1.24c0.26,-1.53 0.41,-3.09 0.44,-4.65l0.3,-16.8h-2.55v3.68c0,0.8 -0.64,1.45 -1.45,1.45h-1.33c-0.8,0 -1.45,-0.64 -1.47,-1.45zM38.45,25.48c-0.46,-1.9 -2.09,-4.94 -2.11,-4.97l-0.02,-0.04c-0.02,-0.05 -2.14,-4.62 -4.27,-9.37c-0.31,-0.7 -0.6,-1.57 -0.84,-2.5l-0.18,9.81c-0.08,3.56 -0.71,7.07 -1.87,10.44c-0.02,1.07 -0.04,1.85 -0.04,1.93v0.02l-0.47,8.7c-0.05,0.83 -0.73,1.47 -1.56,1.47h-3.97c-0.83,0 -1.51,-0.64 -1.56,-1.47l-0.47,-8.72c-0.01,-0.09 -0.03,-0.85 -0.04,-1.93c-1.17,-3.37 -1.8,-6.88 -1.87,-10.44l-0.18,-9.82c-0.24,0.93 -0.53,1.8 -0.84,2.5c-2.13,4.76 -4.25,9.33 -4.27,9.37l-0.02,0.04c-0.02,0.03 -1.65,3.06 -2.11,4.97c-0.33,1.43 -0.24,3.99 -0.19,5.04h4.05c0.86,0 1.56,0.7 1.56,1.56v10.09h15.82v-10.09c0,-0.86 0.7,-1.56 1.56,-1.56h4.05c0.06,-1.04 0.15,-3.61 -0.18,-5.03zM27.55,24.5c-0.03,-0.95 -0.09,-1.83 -0.19,-2.49c-0.96,-4.35 -1.97,-5.03 -2.17,-5.12c-0.06,-0.03 -0.14,-0.03 -0.19,0c-0.2,0.1 -1.21,0.77 -2.17,5.12c-0.09,0.66 -0.15,1.54 -0.19,2.49zM22.69,31.46l0.43,7.94h3.96l0.43,-7.94zM15.63,44.64v-12.57h-2.16v12.57zM18.76,43.72h-1.56v0.92h1.56zM33,44.64v-0.92h-1.56v0.92zM36.74,32.07h-2.17v12.57h2.16v-0.02zM27.58,26.06h-4.96c-0.02,1.5 -0.01,2.97 0.01,3.84h4.94c0.02,-0.87 0.04,-2.33 0.01,-3.84z" />
</svg>
