<svg fill="#fff" xmlns="http://www.w3.org/2000/svg" viewBox="0 0 50 50" width="50" height="50">
	<!-- <style>
		tspan { white-space:pre }
		.shp0 { fill: #c9cbcf }
		.shp1 { fill: #555e6b }
	</style> -->
	<g id="Layer">
		<g id="Layer">
			<path id="Layer" class="shp0" d="M32.82,25.8c0,0.72 -0.1,1.41 -0.28,2.07c1.37,-0.77 2.76,-1.24 4.19,-1.4c0.33,-0.04 0.67,-0.22 0.67,-0.63v-0.03v-0.03c0,-0.41 -0.35,-0.6 -0.67,-0.63c-1.43,-0.16 -2.82,-0.62 -4.19,-1.4c0.18,0.66 0.27,1.35 0.28,2.05z" />
		</g>
		<g id="Layer">
			<path id="Layer" class="shp0" d="M17.47,27.88c-0.19,-0.66 -0.28,-1.36 -0.28,-2.07c0,-0.71 0.1,-1.4 0.28,-2.06c-1.37,0.77 -2.76,1.24 -4.19,1.4c-0.33,0.04 -0.67,0.22 -0.67,0.63v0.03v0.03c0,0.41 0.35,0.6 0.67,0.63c1.43,0.17 2.82,0.63 4.19,1.41z" />
		</g>
		<g id="Layer">
			<path id="Layer" class="shp0" d="M26.76,25.62c0,-0.97 -0.79,-1.76 -1.76,-1.76c-0.97,0 -1.76,0.79 -1.76,1.76c0,0.97 0.79,1.76 1.76,1.76c0.97,0 1.76,-0.79 1.76,-1.76z" />
		</g>
	</g>
	<g id="Layer">
		<path id="Layer" class="shp1" d="M47.72,26l-1.34,6.84l-3.41,13.76c-0.14,0.55 -0.56,0.99 -1.11,1.13c-0.03,0.01 -0.06,0.01 -0.09,0.02c-0.11,0.02 -0.21,0.03 -0.31,0.03c-0.42,0 -0.83,-0.18 -1.13,-0.49l-6.28,-6.61c-0.21,-0.22 -0.36,-0.51 -0.41,-0.81l-1.7,-9.76c-0.46,0.34 -0.92,0.73 -1.37,1.15c-1.42,1.46 -3.4,2.36 -5.59,2.36c-2.19,0 -4.17,-0.91 -5.59,-2.36c-0.45,-0.43 -0.91,-0.81 -1.37,-1.15l-1.7,9.76c-0.06,0.3 -0.2,0.59 -0.41,0.81l-6.28,6.6c-0.3,0.31 -0.71,0.49 -1.13,0.49c-0.11,0 -0.21,-0.01 -0.31,-0.03c-0.03,-0.01 -0.06,-0.01 -0.09,-0.02c-0.55,-0.15 -0.98,-0.58 -1.11,-1.13l-3.4,-13.77l-1.34,-6.82c-0.03,-0.12 -0.03,-0.24 0,-0.37l1.34,-6.82l3.38,-15.35c0.13,-0.61 0.59,-1.05 1.18,-1.19c0.61,-0.13 1.21,0.09 1.58,0.58l6.19,8.03c0.22,0.29 0.38,0.65 0.45,1.03l1.67,9.62c0.43,-0.32 0.86,-0.67 1.28,-1.06c1.43,-1.5 3.44,-2.45 5.67,-2.45c2.24,0 4.25,0.95 5.67,2.45c0.43,0.39 0.86,0.74 1.29,1.06l1.73,-9.95c0.02,-0.16 0.09,-0.3 0.19,-0.43l6.38,-8.29c0.37,-0.49 0.98,-0.7 1.57,-0.58c0.6,0.14 1.04,0.6 1.18,1.19l3.38,15.37l1.34,6.8c0.02,0.13 0.02,0.24 -0.01,0.37zM9.57,5.18l3.86,18.37c1.06,-0.17 2.13,-0.54 3.17,-1.11l-1.79,-10.27c-0.02,-0.13 -0.07,-0.24 -0.15,-0.34zM3.97,25.03h7.2c0.15,-0.4 0.41,-0.74 0.76,-1l-3.85,-18.33l-2.95,13.43zM11.92,27.59c-0.34,-0.25 -0.61,-0.6 -0.75,-1h-7.2l1.15,5.89l2.99,12.1zM16.6,29.18c-1.04,-0.58 -2.11,-0.95 -3.18,-1.11l-3.81,16.99l5.19,-5.46zM17.47,27.88c-0.19,-0.66 -0.28,-1.36 -0.28,-2.07c0,-0.71 0.1,-1.4 0.28,-2.06c-1.37,0.77 -2.76,1.24 -4.19,1.4c-0.33,0.04 -0.67,0.22 -0.67,0.63v0.06c0,0.41 0.35,0.6 0.67,0.63c1.43,0.17 2.82,0.63 4.19,1.41zM31.25,25.81c0,-3.45 -2.8,-6.25 -6.25,-6.25c-3.45,0 -6.25,2.8 -6.25,6.25c0,3.45 2.8,6.25 6.25,6.25c3.45,0 6.25,-2.8 6.25,-6.25zM33.39,22.44c1.04,0.58 2.1,0.95 3.17,1.11l3.85,-18.36l-5.21,6.78zM32.82,25.8c0,0.72 -0.1,1.42 -0.28,2.07c1.37,-0.77 2.76,-1.24 4.19,-1.4c0.33,-0.04 0.67,-0.22 0.67,-0.63v-0.06c0,-0.41 -0.35,-0.6 -0.67,-0.63c-1.43,-0.16 -2.82,-0.62 -4.19,-1.4c0.18,0.66 0.27,1.35 0.28,2.05zM40.38,45.07l-3.81,-16.99c-1.07,0.16 -2.14,0.54 -3.18,1.11l1.82,10.41zM46.03,26.6h-7.2c-0.15,0.4 -0.4,0.74 -0.75,1l3.81,16.98l2.99,-12.1zM46.02,25.03l-1.15,-5.9l-2.96,-13.45l-3.85,18.35c0.35,0.25 0.62,0.6 0.76,1z" />
		<path id="Layer" class="shp1" d="M28.32,25.62c0,1.83 -1.49,3.32 -3.32,3.32c-1.83,0 -3.32,-1.49 -3.32,-3.32c0,-1.83 1.49,-3.32 3.32,-3.32c1.83,0 3.32,1.49 3.32,3.32zM26.76,25.62c0,-0.97 -0.79,-1.76 -1.76,-1.76c-0.97,0 -1.76,0.79 -1.76,1.76c0,0.97 0.79,1.76 1.76,1.76c0.97,0 1.76,-0.79 1.76,-1.76z" />
	</g>
</svg>
